<?xml version="1.0" standalone="no"?><!DOCTYPE svg PUBLIC "-//W3C//DTD SVG 1.1//EN" "http://www.w3.org/Graphics/SVG/1.1/DTD/svg11.dtd"><svg t="1754026717850" class="icon" viewBox="0 0 1024 1024" version="1.1" xmlns="http://www.w3.org/2000/svg" p-id="27377" xmlns:xlink="http://www.w3.org/1999/xlink" width="200" height="200"><path d="M512 921.6h-4.266667-4.266666l-384-170.666667c-8.533333-4.266667-17.066667-12.8-17.066667-21.333333V298.666667v-4.266667c0-4.266667 0-4.266667 4.266667-8.533333l4.266666-4.266667 4.266667-4.266667h4.266667l384-170.666666c8.533333-4.266667 12.8-4.266667 21.333333 0l384 170.666666h4.266667s4.266667 0 4.266666 4.266667l4.266667 4.266667c0 4.266667 4.266667 4.266667 4.266667 8.533333V725.333333c0 8.533333-4.266667 21.333333-17.066667 21.333334l-384 170.666666h-4.266667c-4.266667 4.266667-8.533333 4.266667-8.533333 4.266667z m25.6-435.2v371.2l332.8-149.333333V337.066667l-332.8 149.333333z m-384 221.866667l332.8 149.333333v-371.2L153.6 337.066667v371.2zM192 298.666667l320 140.8L832 298.666667 512 157.866667 192 298.666667z" fill="#707070" p-id="27378"></path></svg>