<?xml version="1.0" standalone="no"?><!DOCTYPE svg PUBLIC "-//W3C//DTD SVG 1.1//EN" "http://www.w3.org/Graphics/SVG/1.1/DTD/svg11.dtd"><svg t="1754026545210" class="icon" viewBox="0 0 1024 1024" version="1.1" xmlns="http://www.w3.org/2000/svg" p-id="17659" xmlns:xlink="http://www.w3.org/1999/xlink" width="200" height="200"><path d="M226.9632 306.048C226.9632 156.16 318.8032 64 453.2032 64c134.4 0 219.328 92.16 219.328 242.048 0 94.72-30.592 183.68-99.2 251.008-16.384 16.512-16.384 65.6 0 77.056 83.584 57.6 150.656 66.816 244.928 124.928 62.528 38.528 108.48 134.08 54.016 200.96H20.6272c-46.72-66.88-4.864-162.432 47.552-200.96 65.792-48.32 169.6-60.672 250.56-124.928 15.616-13.12 15.616-59.584 0-77.12C259.9872 476.544 226.9632 419.904 226.9632 306.048z m557.696 507.52c-35.264-21.76-55.936-31.616-118.912-58.688a1684.48 1684.48 0 0 1-29.056-12.8 611.712 611.712 0 0 1-99.904-55.424c-51.584-35.904-51.584-131.84-8.32-175.296 53.056-52.032 80-122.688 80-205.312C608.4032 190.848 551.2512 128 453.1392 128 352.7872 128 290.9632 192.96 290.9632 306.048c0 86.08 16.768 127.36 75.456 208.32 38.4 43.008 38.4 131.008-7.936 169.856-32.384 25.728-67.84 45.12-112.768 64-9.28 3.904-18.816 7.744-30.336 12.224l-28.352 10.944c-42.24 16.384-63.808 26.56-81.024 39.232-26.048 19.136-42.432 55.936-41.216 85.376h766.72c2.56-27.712-15.488-63.104-46.912-82.496zM800.4032 320h192a32 32 0 1 1 0 64h-192a32 32 0 1 1 0-64z m64 192h128a32 32 0 1 1 0 64h-128a32 32 0 1 1 0-64z m64 192h64a32 32 0 1 1 0 64h-64a32 32 0 1 1 0-64z" fill="#707070" p-id="17660"></path></svg>