<?xml version="1.0" standalone="no"?><!DOCTYPE svg PUBLIC "-//W3C//DTD SVG 1.1//EN" "http://www.w3.org/Graphics/SVG/1.1/DTD/svg11.dtd"><svg t="1754027468084" class="icon" viewBox="0 0 1024 1024" version="1.1" xmlns="http://www.w3.org/2000/svg" p-id="48277" xmlns:xlink="http://www.w3.org/1999/xlink" width="200" height="200"><path d="M475.74016 20.48h52.92544c63.70816 33.50016 104.22784 88.6528 136.38144 150.272 12.96384 24.84224 27.94496 30.74048 55.59808 29.45024 45.1072-2.10432 91.26912-0.55808 135.7312 6.92736 71.71584 12.07808 105.10848 60.24704 86.73792 130.82624-12.70784 48.82944-40.192 93.66528-58.30144 141.3376-5.18656 13.66016-5.7856 33.35168 0.22016 46.21312 23.39328 50.1248 50.2784 98.62144 75.86816 147.72224v61.7472c-29.06624 47.0784-73.472 69.39648-126.47936 75.22304-33.43872 3.67616-67.38944 5.56032-100.95616 4.28032-24.36096-0.93184-36.79232 7.31648-46.51008 29.36832-29.20448 66.29888-67.31776 126.21312-131.82464 164.57728H502.20544c-63.29856-33.64352-104.17664-88.22784-136.15616-149.84192-12.45184-23.9872-25.29792-32.15872-54.01088-30.208-44.81024 3.0464-90.88512 0.9472-135.26016-6.21056-74.02496-11.93984-107.80672-60.12928-88.82176-132.48512 12.75904-48.63488 40.00256-93.34272 58.54208-140.67712 4.91008-12.53888 6.66624-30.6688 1.23904-42.14784-24.21248-51.2-51.54816-100.92544-77.75744-151.18336v-61.7472c28.19584-45.22496 70.1952-68.53632 121.99424-74.12224 33.38752-3.59936 67.21024-6.86592 100.61824-5.36576 27.99104 1.2544 41.91744-8.7296 53.18656-33.75104C374.81472 116.1984 412.5952 57.77408 475.74016 20.48z m156.40576 270.8992c-33.4848 24.05888-62.72 48.26624-95.20128 66.79552-12.59008 7.18336-35.49184 7.29088-48.50688 0.57344-33.77152-17.4336-64.65536-40.45312-104.51456-66.31424 4.66944 44.68736 7.09632 78.25408 11.97056 111.4624 4.38272 29.83936-2.74432 48.9472-33.80736 60.61568-31.9744 12.01152-61.51168 30.5152-99.94752 50.19136 41.1648 19.072 73.2416 35.82976 106.76736 48.83968 24.23296 9.40032 33.19296 21.7344 30.44864 48.96256-3.6864 36.5824-0.91648 73.81504-0.91648 116.224 33.7664-24.15616 64.3328-44.05248 92.53376-66.87744 19.21536-15.55456 34.01728-16.19456 54.0672-1.28512 30.0544 22.34368 62.45376 41.53344 101.5552 67.0976-4.42368-44.32896-6.75328-79.19616-11.70944-113.68448-4.0704-28.33408 2.4576-46.16704 31.81056-57.53856 32.94208-12.76416 63.48288-31.71328 102.06208-51.57376-43.50464-19.97824-79.02208-33.83808-111.7184-52.608-11.78624-6.76864-22.60992-24.83712-23.78752-38.61504-3.2256-37.7856-1.10592-76.02176-1.10592-122.2656z m34.33984 507.58144c-133.62688-113.2032-138.97728-113.60768-257.43872-24.71424-3.51744 2.64192-9.09312 4.55168-10.23488 7.97184-3.61984 10.78272-11.49952 25.84576-7.22432 32.64 26.42944 41.984 52.11136 85.41696 85.06368 122.05056 36.29056 40.3456 69.51936 38.85568 103.62368-4.30592 33.00352-41.77408 58.2912-89.64608 86.21056-133.64224z m-468.096-264.18688c-24.56064 56.69376-50.48832 107.37664-68.44416 160.74752-15.70304 46.67392 1.3312 74.7008 50.21696 82.85184 45.7216 7.61856 93.06624 6.74304 139.68896 6.63552 8.74496-0.02048 24.30464-13.3888 25.07776-21.6832 4.736-50.92352 18.54976-106.1632 3.85024-151.74656-8.44288-26.17856-64.82432-37.05344-99.81952-54.4256-12.98944-6.4512-26.52672-11.79648-50.57024-22.37952z m637.64992-13.42976c-53.39648 26.496-97.99168 47.9232-141.70624 71.02976-7.16288 3.7888-15.2832 15.36-14.69952 22.67136 4.12672 51.72224 10.40384 103.2704 16.8704 162.9184 61.06112-6.85056 116.67968-8.94464 170.30144-20.38272 45.57312-9.72288 62.25408-40.54016 45.46048-82.7648-20.6848-52.00384-49.57696-100.74112-76.22656-153.472z m-157.6192-174.592c-2.304 68.79744-2.304 68.79744 53.8624 94.04416 111.01696 49.89952 112.65536 49.2032 157.824-67.46624 34.43712-88.94976 10.74688-125.71136-85.08928-131.98336a157.48608 157.48608 0 0 0-13.18912-0.36864c-125.696 2.37568-105.59488-14.16704-113.408 105.77408zM189.14816 497.97632C356.80256 432.10752 356.80768 432.10752 342.06208 297.2672c-0.63488-5.8112 0.4352-13.24544-2.7392-17.04448-7.2192-8.64768-16.89088-22.33856-25.02144-21.96992-50.7648 2.29376-102.3744 3.24608-151.76192 13.76256C117.49888 281.6 101.93408 312.52992 118.8096 355.4304c19.44064 49.4336 46.83264 95.744 70.33856 142.54592z m462.3616-274.37568c-33.20832-45.6448-61.42976-91.97056-97.18784-131.47136-36.48-40.29952-69.38112-38.71232-103.83872 4.07552-31.70816 39.37792-56.03328 84.70528-85.38624 130.16064 47.44192 31.62112 88.36608 59.90912 130.58048 86.11328 7.72096 4.79232 23.59808 5.43232 30.78144 0.62464 40.0896-26.81856 78.65856-55.90016 125.05088-89.50272z" p-id="48278" fill="#707070"></path></svg>