<?xml version="1.0" standalone="no"?><!DOCTYPE svg PUBLIC "-//W3C//DTD SVG 1.1//EN" "http://www.w3.org/Graphics/SVG/1.1/DTD/svg11.dtd"><svg t="1754026863874" class="icon" viewBox="0 0 1024 1024" version="1.1" xmlns="http://www.w3.org/2000/svg" p-id="29604" xmlns:xlink="http://www.w3.org/1999/xlink" width="200" height="200"><path d="M512.998 928.219C284.171 928.219 98 742.032 98 513.186 98 284.338 284.171 98.152 512.998 98.152s414.998 186.186 414.998 415.034c-0.001 228.846-186.172 415.033-414.998 415.033z m0-797.515c-210.868 0-382.449 171.594-382.449 382.481 0 210.886 171.581 382.48 382.449 382.48s382.45-171.595 382.45-382.48c-0.001-210.887-171.583-382.481-382.45-382.481z" fill="#707070" p-id="29605"></path><path d="M136.302 369.278h426.187v33.219H136.302zM463.825 631.724h426.187v33.221H463.825z" fill="#707070" p-id="29606"></path><path d="M585.979 656.171l301.362-301.389-23.489-23.491-301.363 301.387zM475.414 392.753L174.04 694.126l-23.491-23.492 301.372-301.372zM667.922 882.443L366.56 581.054l23.489-23.491 301.362 301.386zM629.397 467.409L328.035 166.021l23.49-23.493 301.363 301.389z" fill="#707070" p-id="29607"></path><path d="M627.809 142.242h33.215v426.224h-33.215zM366.56 465.565h33.216v426.223H366.56z" fill="#707070" p-id="29608"></path></svg>