<?xml version="1.0" standalone="no"?><!DOCTYPE svg PUBLIC "-//W3C//DTD SVG 1.1//EN" "http://www.w3.org/Graphics/SVG/1.1/DTD/svg11.dtd"><svg t="1754026994307" class="icon" viewBox="0 0 1024 1024" version="1.1" xmlns="http://www.w3.org/2000/svg" p-id="34524" xmlns:xlink="http://www.w3.org/1999/xlink" width="200" height="200"><path d="M530.133333 403.370667l397.781334-50.218667a21.333333 21.333333 0 0 1 23.978666 20.266667l2.346667 56.746666a21.333333 21.333333 0 0 1-21.504 22.272l-400.170667-3.84a21.333333 21.333333 0 0 1-21.12-21.333333V424.533333a21.333333 21.333333 0 0 1 18.688-21.162666zM400.042667 324.096l50.858666-236.16a21.333333 21.333333 0 0 1 27.861334-15.658667l53.504 18.602667a21.333333 21.333333 0 0 1 12.501333 28.8l-97.536 220.288a21.333333 21.333333 0 0 1-27.434667 11.178667l-6.826666-2.730667a21.333333 21.333333 0 0 1-12.928-24.32z m-120.874667 124.586667l-200.533333 3.541333a21.333333 21.333333 0 0 1-21.674667-23.168l4.394667-50.474667a21.333333 21.333333 0 0 1 25.728-19.029333l196.650666 42.154667a21.333333 21.333333 0 0 1 16.768 22.997333l-0.512 4.778667a21.333333 21.333333 0 0 1-20.821333 19.2z m86.485333 130.432L278.186667 925.013333a21.333333 21.333333 0 0 1-27.648 14.933334l-54.698667-19.072a21.333333 21.333333 0 0 1-12.672-28.373334l137.386667-328.277333a21.333333 21.333333 0 0 1 25.813333-12.202667l4.693333 1.408a21.333333 21.333333 0 0 1 14.592 25.685334z m141.781334-35.285334l304.810666 336.042667a21.333333 21.333333 0 0 1-2.133333 30.72l-42.069333 35.072a21.333333 21.333333 0 0 1-31.018667-3.968l-264.618667-369.706667a21.333333 21.333333 0 0 1 4.522667-29.44l1.92-1.450666a21.333333 21.333333 0 0 1 28.586667 2.730666z" fill="#707070" p-id="34525"></path></svg>