<?xml version="1.0" standalone="no"?><!DOCTYPE svg PUBLIC "-//W3C//DTD SVG 1.1//EN" "http://www.w3.org/Graphics/SVG/1.1/DTD/svg11.dtd"><svg t="1754026896017" class="icon" viewBox="0 0 1024 1024" version="1.1" xmlns="http://www.w3.org/2000/svg" p-id="31549" xmlns:xlink="http://www.w3.org/1999/xlink" width="200" height="200"><path d="M466.176 590.72c-11.733333 22.314667-32.085333 59.029333-56.661333 94.826667-39.253333 57.066667-66.410667 78.933333-82.026667 87.253333a15.509333 15.509333 0 0 1-20.245333-5.226667c-17.706667-26.666667-51.626667-96.96-82.944-221.482666-33.408-132.821333-44.586667-254.976-27.157334-297.088a11.776 11.776 0 0 1 16.853334-5.696c23.616 13.866667 82.261333 64.469333 193.152 248.576a15588.906667 15588.906667 0 0 1 59.029333 98.837333m338.624-44.629333c-30.72 122.048-63.914667 192-81.770667 219.776a18.24 18.24 0 0 1-25.024 5.461333c-33.194667-20.650667-87.765333-87.957333-135.210666-180.394667a15871.573333 15871.573333 0 0 1 59.157333-99.050666c111.253333-184.682667 169.941333-235.008 193.344-248.725334a11.370667 11.370667 0 0 1 16.618667 5.674667l0.064 0.192c17.408 42.112 6.229333 164.266667-27.178667 297.066667m105.194667-329.344c-21.226667-51.370667-56.746667-61.461333-76.053334-62.933334-72-5.333333-156.8 82.816-284.330666 294.506667-11.733333 19.477333-23.424 38.976-35.072 58.496a15142.4 15142.4 0 0 0-35.050667-58.496C351.957333 236.565333 266.773333 148.48 195.136 153.813333c-19.285333 1.450667-54.784 11.562667-76.032 62.912-29.290667 70.826667-7.274667 209.408 8.448 285.717334 23.765333 115.2 62.016 229.952 97.493333 292.352 23.573333 41.472 47.146667 62.634667 74.176 66.581333 4.330667 0.64 8.725333 0.96 13.12 0.96 79.829333 0 155.861333-104.256 202.197334-183.701333 46.357333 79.445333 122.368 183.68 202.24 183.68 4.352 0 8.768-0.298667 13.12-0.938667 27.008-3.946667 50.581333-25.109333 74.154666-66.581333 35.456-62.378667 73.728-177.130667 97.493334-292.352 15.722667-76.309333 37.76-214.869333 8.448-285.717334" fill="#707070" p-id="31550"></path></svg>