<?xml version="1.0" standalone="no"?><!DOCTYPE svg PUBLIC "-//W3C//DTD SVG 1.1//EN" "http://www.w3.org/Graphics/SVG/1.1/DTD/svg11.dtd"><svg t="1754047885299" class="icon" viewBox="0 0 1024 1024" version="1.1" xmlns="http://www.w3.org/2000/svg" p-id="58550" xmlns:xlink="http://www.w3.org/1999/xlink" width="200" height="200"><path d="M522.24 1021.952C245.76 1021.952 20.48 796.672 20.48 520.192S245.76 18.432 522.24 18.432 1024 243.712 1024 520.192 798.72 1021.952 522.24 1021.952z m0-942.08C278.528 79.872 81.92 278.528 81.92 520.192c0 243.712 196.608 440.32 440.32 440.32S962.56 763.904 962.56 520.192c0-241.664-196.608-440.32-440.32-440.32z" p-id="58551" fill="#707070"></path><path d="M350.208 370.688m-79.872 0a79.872 79.872 0 1 0 159.744 0 79.872 79.872 0 1 0-159.744 0Z" p-id="58552" fill="#707070"></path><path d="M696.32 370.688m-79.872 0a79.872 79.872 0 1 0 159.744 0 79.872 79.872 0 1 0-159.744 0Z" p-id="58553" fill="#707070"></path><path d="M522.24 864.256c-178.176 0-323.584-139.264-323.584-311.296v-30.72h645.12V552.96c2.048 172.032-143.36 311.296-321.536 311.296zM262.144 585.728c16.384 122.88 126.976 219.136 260.096 219.136s243.712-96.256 260.096-219.136H262.144z" p-id="58554" fill="#707070"></path></svg>